<svg width="579" height="360" viewBox="0 0 579 360" fill="none" xmlns="http://www.w3.org/2000/svg">
<rect width="579" height="360" fill="white"/>
<rect width="579" height="15" fill="#174B78"/>
<rect y="30" width="579" height="15" fill="#174B78"/>
<rect y="60" width="579" height="15" fill="#174B78"/>
<rect y="90" width="579" height="15" fill="#174B78"/>
<rect y="120" width="579" height="15" fill="#174B78"/>
<rect y="150" width="579" height="15" fill="#174B78"/>
<rect y="180" width="579" height="15" fill="#174B78"/>
<rect y="210" width="579" height="15" fill="#174B78"/>
<rect y="240" width="579" height="15" fill="#174B78"/>
<rect y="270" width="579" height="15" fill="#174B78"/>
<rect y="300" width="579" height="15" fill="#174B78"/>
<rect y="330" width="579" height="15" fill="#174B78"/>
<rect y="15" width="579" height="15" fill="#5D7399"/>
<rect y="45" width="579" height="15" fill="#5D7399"/>
<rect y="75" width="579" height="15" fill="#5D7399"/>
<rect y="105" width="579" height="15" fill="#5D7399"/>
<rect y="135" width="579" height="15" fill="#5D7399"/>
<rect y="165" width="579" height="15" fill="#5D7399"/>
<rect y="195" width="579" height="15" fill="#5D7399"/>
<rect y="225" width="579" height="15" fill="#5D7399"/>
<rect y="255" width="579" height="15" fill="#5D7399"/>
<rect y="285" width="579" height="15" fill="#5D7399"/>
<rect y="315" width="579" height="15" fill="#5D7399"/>
<rect y="345" width="579" height="15" fill="#5D7399"/>
</svg>
